<?xml version="1.0" encoding="UTF-8" standalone="no"?>
<!-- Created with Inkscape (http://www.inkscape.org/) -->

<svg
   xmlns:dc="http://purl.org/dc/elements/1.1/"
   xmlns:cc="http://creativecommons.org/ns#"
   xmlns:rdf="http://www.w3.org/1999/02/22-rdf-syntax-ns#"
   xmlns:svg="http://www.w3.org/2000/svg"
   xmlns="http://www.w3.org/2000/svg"
   xmlns:sodipodi="http://sodipodi.sourceforge.net/DTD/sodipodi-0.dtd"
   xmlns:inkscape="http://www.inkscape.org/namespaces/inkscape"
   width="130.48016mm"
   height="78.897873mm"
   viewBox="0 0 462.33129 279.55939"
   id="svg8562"
   version="1.1"
   inkscape:version="0.91 r13725"
   sodipodi:docname="20.svg">
  <defs
     id="defs8564" />
  <sodipodi:namedview
     id="base"
     pagecolor="#ffffff"
     bordercolor="#666666"
     borderopacity="1.0"
     inkscape:pageopacity="0.0"
     inkscape:pageshadow="2"
     inkscape:zoom="0.87885424"
     inkscape:cx="375"
     inkscape:cy="154.88716"
     inkscape:document-units="px"
     inkscape:current-layer="layer1"
     showgrid="false"
     inkscape:window-width="956"
     inkscape:window-height="567"
     inkscape:window-x="960"
     inkscape:window-y="0"
     inkscape:window-maximized="0" />
  <metadata
     id="metadata8567">
    <rdf:RDF>
      <cc:Work
         rdf:about="">
        <dc:format>image/svg+xml</dc:format>
        <dc:type
           rdf:resource="http://purl.org/dc/dcmitype/StillImage" />
        <dc:title></dc:title>
      </cc:Work>
    </rdf:RDF>
  </metadata>
  <g
     inkscape:label="Layer 1"
     inkscape:groupmode="layer"
     id="layer1"
     transform="translate(0,-772.80283)">
    <path
       style="fill:#8648b5;fill-opacity:1;fill-rule:evenodd;stroke:#8648b5;stroke-width:13.048043;stroke-linecap:butt;stroke-linejoin:miter;stroke-miterlimit:4;stroke-dasharray:none;stroke-opacity:1"
       d="m 91.829753,793.98901 a 58.310295,47.516223 0 0 0 -58.30876,47.51729 58.310295,47.516223 0 0 0 0.55755,6.12558 l 0,129.77207 a 58.310295,47.516223 0 0 0 -0.55755,6.1809 58.310295,47.516223 0 0 0 58.30876,47.51555 58.310295,47.516223 0 0 0 58.311137,-47.51555 58.310295,47.516223 0 0 0 -0.55755,-6.1273 l 0,-129.7704 a 58.310295,47.516223 0 0 0 0.55755,-6.18085 58.310295,47.516223 0 0 0 -58.311137,-47.51729 z"
       id="rect3371-2"
       inkscape:connector-curvature="0" />
    <path
       style="fill:#8648b5;fill-opacity:1;fill-rule:evenodd;stroke:#8648b5;stroke-width:13.048043;stroke-linecap:butt;stroke-linejoin:miter;stroke-miterlimit:4;stroke-dasharray:none;stroke-opacity:1"
       d="m 231.22369,794.68166 a 58.310295,47.516223 0 0 0 -58.30876,47.51729 58.310295,47.516223 0 0 0 0.55755,6.12558 l 0,129.77211 a 58.310295,47.516223 0 0 0 -0.55755,6.18085 58.310295,47.516223 0 0 0 58.30876,47.51551 58.310295,47.516223 0 0 0 58.31114,-47.51551 58.310295,47.516223 0 0 0 -0.55755,-6.1273 l 0,-129.77039 a 58.310295,47.516223 0 0 0 0.55755,-6.18085 58.310295,47.516223 0 0 0 -58.31114,-47.51729 z"
       id="rect3371-4-9"
       inkscape:connector-curvature="0" />
    <path
       style="fill:#8648b5;fill-opacity:1;fill-rule:evenodd;stroke:#8648b5;stroke-width:13.048043;stroke-linecap:butt;stroke-linejoin:miter;stroke-miterlimit:4;stroke-dasharray:none;stroke-opacity:1"
       d="m 374.51373,797.06261 a 58.310295,47.516223 0 0 0 -58.30876,47.51728 58.310295,47.516223 0 0 0 0.55755,6.12559 l 0,129.77211 a 58.310295,47.516223 0 0 0 -0.55755,6.18085 58.310295,47.516223 0 0 0 58.30876,47.51546 58.310295,47.516223 0 0 0 58.31114,-47.51546 58.310295,47.516223 0 0 0 -0.55755,-6.1273 l 0,-129.77039 a 58.310295,47.516223 0 0 0 0.55755,-6.18086 58.310295,47.516223 0 0 0 -58.31114,-47.51728 z"
       id="rect3371-9-2"
       inkscape:connector-curvature="0" />
  </g>
</svg>
