<?xml version="1.0" encoding="UTF-8" standalone="no"?>
<!-- Created with Inkscape (http://www.inkscape.org/) -->

<svg
   xmlns:dc="http://purl.org/dc/elements/1.1/"
   xmlns:cc="http://creativecommons.org/ns#"
   xmlns:rdf="http://www.w3.org/1999/02/22-rdf-syntax-ns#"
   xmlns:svg="http://www.w3.org/2000/svg"
   xmlns="http://www.w3.org/2000/svg"
   xmlns:sodipodi="http://sodipodi.sourceforge.net/DTD/sodipodi-0.dtd"
   xmlns:inkscape="http://www.inkscape.org/namespaces/inkscape"
   width="130.48016mm"
   height="78.897873mm"
   viewBox="0 0 462.33129 279.55939"
   id="svg9150"
   version="1.1"
   inkscape:version="0.91 r13725"
   sodipodi:docname="46.svg">
  <defs
     id="defs9152" />
  <sodipodi:namedview
     id="base"
     pagecolor="#ffffff"
     bordercolor="#666666"
     borderopacity="1.0"
     inkscape:pageopacity="0.0"
     inkscape:pageshadow="2"
     inkscape:zoom="1.0076756"
     inkscape:cx="241.89943"
     inkscape:cy="153.86865"
     inkscape:document-units="px"
     inkscape:current-layer="layer1"
     showgrid="false"
     inkscape:window-width="956"
     inkscape:window-height="567"
     inkscape:window-x="0"
     inkscape:window-y="0"
     inkscape:window-maximized="0" />
  <metadata
     id="metadata9155">
    <rdf:RDF>
      <cc:Work
         rdf:about="">
        <dc:format>image/svg+xml</dc:format>
        <dc:type
           rdf:resource="http://purl.org/dc/dcmitype/StillImage" />
        <dc:title></dc:title>
      </cc:Work>
    </rdf:RDF>
  </metadata>
  <g
     inkscape:label="Layer 1"
     inkscape:groupmode="layer"
     id="layer1"
     transform="translate(0,-772.80282)">
    <path
       style="fill:none;fill-opacity:1;fill-rule:evenodd;stroke:#75bf91;stroke-width:13;stroke-linecap:butt;stroke-linejoin:miter;stroke-miterlimit:4;stroke-dasharray:none;stroke-opacity:1"
       d="m 305.17276,794.64382 a 58.310295,47.516223 0 0 0 -58.30876,47.51728 58.310295,47.516223 0 0 0 0.55755,6.12559 l 0,129.77211 a 58.310295,47.516223 0 0 0 -0.55755,6.18085 58.310295,47.516223 0 0 0 58.30876,47.51555 58.310295,47.516223 0 0 0 58.31114,-47.51555 58.310295,47.516223 0 0 0 -0.55755,-6.1273 l 0,-129.77039 a 58.310295,47.516223 0 0 0 0.55755,-6.18086 58.310295,47.516223 0 0 0 -58.31114,-47.51728 z"
       id="rect3371"
       inkscape:connector-curvature="0" />
    <path
       style="fill:none;fill-rule:evenodd;stroke:#75bf91;stroke-width:14;stroke-linecap:butt;stroke-linejoin:miter;stroke-miterlimit:4;stroke-dasharray:none;stroke-opacity:1"
       d="m 261.04659,813.8291 90.93872,0"
       id="path5705"
       inkscape:connector-curvature="0" />
    <path
       style="fill:none;fill-rule:evenodd;stroke:#75bf91;stroke-width:14.00000095;stroke-linecap:butt;stroke-linejoin:miter;stroke-miterlimit:4;stroke-dasharray:none;stroke-opacity:1"
       d="m 246.90332,843.5167 116.54333,0"
       id="path5707"
       inkscape:connector-curvature="0" />
    <path
       style="fill:none;fill-rule:evenodd;stroke:#75bf91;stroke-width:13.99999905;stroke-linecap:butt;stroke-linejoin:miter;stroke-miterlimit:4;stroke-dasharray:none;stroke-opacity:1"
       d="m 247.42155,876.62432 115.5048,-0.52983"
       id="path5709"
       inkscape:connector-curvature="0" />
    <path
       style="fill:none;fill-rule:evenodd;stroke:#75bf91;stroke-width:14.00000095;stroke-linecap:butt;stroke-linejoin:miter;stroke-miterlimit:4;stroke-dasharray:none;stroke-opacity:1"
       d="m 247.42156,908.22705 115.5048,0"
       id="path5711"
       inkscape:connector-curvature="0" />
    <path
       style="fill:none;fill-rule:evenodd;stroke:#75bf91;stroke-width:14;stroke-linecap:butt;stroke-linejoin:miter;stroke-miterlimit:4;stroke-dasharray:none;stroke-opacity:1"
       d="m 247.42156,945.09686 115.5048,0"
       id="path5713"
       inkscape:connector-curvature="0" />
    <path
       style="fill:none;fill-rule:evenodd;stroke:#75bf91;stroke-width:14;stroke-linecap:butt;stroke-linejoin:miter;stroke-miterlimit:4;stroke-dasharray:none;stroke-opacity:1"
       d="m 247.42155,977.45206 115.50481,0"
       id="path5715"
       inkscape:connector-curvature="0" />
    <path
       style="fill:none;fill-rule:evenodd;stroke:#75bf91;stroke-width:14;stroke-linecap:butt;stroke-linejoin:miter;stroke-miterlimit:4;stroke-dasharray:none;stroke-opacity:1"
       d="m 254.89528,1008.3024 100.55734,0"
       id="path5717"
       inkscape:connector-curvature="0" />
    <path
       style="fill:none;fill-opacity:1;fill-rule:evenodd;stroke:#75bf91;stroke-width:13;stroke-linecap:butt;stroke-linejoin:miter;stroke-miterlimit:4;stroke-dasharray:none;stroke-opacity:1"
       d="m 163.39776,795.29283 a 58.310295,47.516223 0 0 0 -58.30876,47.51728 58.310295,47.516223 0 0 0 0.55755,6.12559 l 0,129.77211 a 58.310295,47.516223 0 0 0 -0.55755,6.18085 58.310295,47.516223 0 0 0 58.30876,47.51554 58.310295,47.516223 0 0 0 58.31114,-47.51554 58.310295,47.516223 0 0 0 -0.55755,-6.1273 l 0,-129.77039 a 58.310295,47.516223 0 0 0 0.55755,-6.18086 58.310295,47.516223 0 0 0 -58.31114,-47.51728 z"
       id="rect3371-8"
       inkscape:connector-curvature="0" />
    <path
       style="fill:none;fill-rule:evenodd;stroke:#75bf91;stroke-width:14;stroke-linecap:butt;stroke-linejoin:miter;stroke-miterlimit:4;stroke-dasharray:none;stroke-opacity:1"
       d="m 119.27159,814.47811 90.93872,0"
       id="path5705-2"
       inkscape:connector-curvature="0" />
    <path
       style="fill:none;fill-rule:evenodd;stroke:#75bf91;stroke-width:14.00000095;stroke-linecap:butt;stroke-linejoin:miter;stroke-miterlimit:4;stroke-dasharray:none;stroke-opacity:1"
       d="m 105.12832,844.16571 116.54333,0"
       id="path5707-4"
       inkscape:connector-curvature="0" />
    <path
       style="fill:none;fill-rule:evenodd;stroke:#75bf91;stroke-width:13.99999905;stroke-linecap:butt;stroke-linejoin:miter;stroke-miterlimit:4;stroke-dasharray:none;stroke-opacity:1"
       d="m 105.64655,877.27333 115.5048,-0.52983"
       id="path5709-1"
       inkscape:connector-curvature="0" />
    <path
       style="fill:none;fill-rule:evenodd;stroke:#75bf91;stroke-width:14.00000095;stroke-linecap:butt;stroke-linejoin:miter;stroke-miterlimit:4;stroke-dasharray:none;stroke-opacity:1"
       d="m 105.64656,908.87606 115.5048,0"
       id="path5711-4"
       inkscape:connector-curvature="0" />
    <path
       style="fill:none;fill-rule:evenodd;stroke:#75bf91;stroke-width:14;stroke-linecap:butt;stroke-linejoin:miter;stroke-miterlimit:4;stroke-dasharray:none;stroke-opacity:1"
       d="m 105.64656,945.74587 115.5048,0"
       id="path5713-7"
       inkscape:connector-curvature="0" />
    <path
       style="fill:none;fill-rule:evenodd;stroke:#75bf91;stroke-width:14;stroke-linecap:butt;stroke-linejoin:miter;stroke-miterlimit:4;stroke-dasharray:none;stroke-opacity:1"
       d="m 105.64655,978.10107 115.50481,0"
       id="path5715-3"
       inkscape:connector-curvature="0" />
    <path
       style="fill:none;fill-rule:evenodd;stroke:#75bf91;stroke-width:14;stroke-linecap:butt;stroke-linejoin:miter;stroke-miterlimit:4;stroke-dasharray:none;stroke-opacity:1"
       d="m 113.12028,1008.9514 100.55734,0"
       id="path5717-5"
       inkscape:connector-curvature="0" />
  </g>
</svg>
