<?xml version="1.0" encoding="UTF-8" standalone="no"?>
<!-- Created with Inkscape (http://www.inkscape.org/) -->

<svg
   xmlns:dc="http://purl.org/dc/elements/1.1/"
   xmlns:cc="http://creativecommons.org/ns#"
   xmlns:rdf="http://www.w3.org/1999/02/22-rdf-syntax-ns#"
   xmlns:svg="http://www.w3.org/2000/svg"
   xmlns="http://www.w3.org/2000/svg"
   xmlns:sodipodi="http://sodipodi.sourceforge.net/DTD/sodipodi-0.dtd"
   xmlns:inkscape="http://www.inkscape.org/namespaces/inkscape"
   width="130.48016mm"
   height="78.897873mm"
   viewBox="0 0 462.33129 279.55939"
   id="svg9150"
   version="1.1"
   inkscape:version="0.91 r13725"
   sodipodi:docname="19.svg">
  <defs
     id="defs9152" />
  <sodipodi:namedview
     id="base"
     pagecolor="#ffffff"
     bordercolor="#666666"
     borderopacity="1.0"
     inkscape:pageopacity="0.0"
     inkscape:pageshadow="2"
     inkscape:zoom="1.2432572"
     inkscape:cx="375"
     inkscape:cy="294.78514"
     inkscape:document-units="px"
     inkscape:current-layer="layer1"
     showgrid="false"
     inkscape:window-width="1920"
     inkscape:window-height="1171"
     inkscape:window-x="0"
     inkscape:window-y="0"
     inkscape:window-maximized="1" />
  <metadata
     id="metadata9155">
    <rdf:RDF>
      <cc:Work
         rdf:about="">
        <dc:format>image/svg+xml</dc:format>
        <dc:type
           rdf:resource="http://purl.org/dc/dcmitype/StillImage" />
        <dc:title></dc:title>
      </cc:Work>
    </rdf:RDF>
  </metadata>
  <g
     inkscape:label="Layer 1"
     inkscape:groupmode="layer"
     id="layer1"
     transform="translate(0,-772.80282)">
    <path
       style="fill:none;fill-opacity:1;fill-rule:evenodd;stroke:#ff0000;stroke-width:13.048043;stroke-linecap:butt;stroke-linejoin:miter;stroke-miterlimit:4;stroke-dasharray:none;stroke-opacity:1"
       d="m 163.42164,795.2691 a 58.310295,47.516223 0 0 0 -58.30876,47.51729 58.310295,47.516223 0 0 0 0.55755,6.12558 l 0,129.77211 a 58.310295,47.516223 0 0 0 -0.55755,6.18085 58.310295,47.516223 0 0 0 58.30876,47.51557 58.310295,47.516223 0 0 0 58.31113,-47.51557 58.310295,47.516223 0 0 0 -0.55755,-6.1273 l 0,-129.77039 a 58.310295,47.516223 0 0 0 0.55755,-6.18085 58.310295,47.516223 0 0 0 -58.31113,-47.51729 z"
       id="rect3371-4"
       inkscape:connector-curvature="0" />
    <path
       style="fill:none;fill-opacity:1;fill-rule:evenodd;stroke:#ff0000;stroke-width:13.048043;stroke-linecap:butt;stroke-linejoin:miter;stroke-miterlimit:4;stroke-dasharray:none;stroke-opacity:1"
       d="m 305.19652,794.61975 a 58.310295,47.516223 0 0 0 -58.30876,47.51728 58.310295,47.516223 0 0 0 0.55755,6.12559 l 0,129.77211 a 58.310295,47.516223 0 0 0 -0.55755,6.18085 58.310295,47.516223 0 0 0 58.30876,47.51562 58.310295,47.516223 0 0 0 58.31114,-47.51562 58.310295,47.516223 0 0 0 -0.55755,-6.1273 l 0,-129.77039 a 58.310295,47.516223 0 0 0 0.55755,-6.18086 58.310295,47.516223 0 0 0 -58.31114,-47.51728 z"
       id="rect3371-9"
       inkscape:connector-curvature="0" />
  </g>
</svg>
